<?xml version="1.0" encoding="utf-8"?>
<!-- Generator: Adobe Illustrator 25.4.1, SVG Export Plug-In . SVG Version: 6.00 Build 0)  -->
<svg version="1.1" id="Layer_1" xmlns="http://www.w3.org/2000/svg" xmlns:xlink="http://www.w3.org/1999/xlink" x="0px" y="0px"
	 viewBox="0 0 390 844" style="enable-background:new 0 0 390 844;" xml:space="preserve">
<style type="text/css">
	.st0{fill:#7C2D12;}
</style>
<path class="st0" d="M-259.68-33.13c0,0,217.39-11.59,472.46,115.94s560.87-8.7,555.07,20.29
	c-5.8,28.99-157.97-150.72-157.97-150.72l-386.96-91.3L-259.68-33.13z"/>
<path class="st0" d="M-395.91,66.87"/>
<path class="st0" d="M-23.36,471.64c7.61,40.27,16.14,73.73,23.36,99.11c14.03,49.31,22.8,66.95,27.32,75.46
	c0.47,0.88,7.07,12.6,20.27,36.04c13.23,23.49,16.33,28.93,21.4,37.17c8.49,13.79,14.35,23.24,23.65,34.91
	c6.33,7.94,12.48,15.66,21.4,23.65c10.33,9.26,27.95,25.03,54.06,29.28c22.93,3.73,41.53-3.21,54.06-7.88
	c12.97-4.84,22.91-11.11,42.8-23.65c21.37-13.48,32.66-21.4,32.66-21.4c13.84-9.71,20.5-15.24,32.66-18.02
	c5.53-1.26,16.36-3.58,23.65,2.25c0.97,0.78,2.4,2.11,6.76,11.26c5.93,12.44,6.4,16.5,10.14,23.65c1.04,1.99,2.78,5.07,12.39,16.89
	c7.54,9.28,11.31,13.91,20.27,23.65c15.39,16.73,29.17,72.58,16.89,103.61c-21.48,54.31-131.52,54.71-262.41,55.19
	c-135.66,0.5-204.55-0.11-256.78-41.67c-83.28-66.27-88.46-174.65-88.97-190.33C-191.3,633.03-126.88,529.65-23.36,471.64z"/>
</svg>
