<?xml version="1.0" encoding="utf-8"?>
<!-- Generator: Adobe Illustrator 25.4.1, SVG Export Plug-In . SVG Version: 6.00 Build 0)  -->
<svg version="1.1" id="Layer_1" xmlns="http://www.w3.org/2000/svg" xmlns:xlink="http://www.w3.org/1999/xlink" x="0px" y="0px"
	 viewBox="0 0 390 844" style="enable-background:new 0 0 390 844;" xml:space="preserve">
<style type="text/css">
	.st0{fill:#7C2D12;}
</style>
<path class="st0" d="M-103.7,62.9c0,0,215.4-17.9,327.7-13.7s241.8-17.5,268.7-77.8c27-60.4-206.3-164-206.3-164l-415,9L-103.7,62.9
	z"/>
<path class="st0" d="M-128.5,722.2l123.7,25.5c0,0,47.9-12.4,122.5-69.1s78.6-66.4,99.6-58.4c21,8.1,29.9,73.3,81.4,86.9
	c51.5,13.6,127.8,57.3,292.3,46C755.5,741.8,187.4,1003,187.4,1003l-171.9-9L-128.5,722.2z"/>
</svg>
